<svg id="Capa_1" data-name="Capa 1" xmlns="http://www.w3.org/2000/svg" viewBox="0 0 551.24 207.25"><defs><style>.cls-1{fill:#fff;}</style></defs><title>MARTIZ_AF</title><rect class="cls-1" x="46.92" y="101.81" width="2.26" height="41.76"/><polygon class="cls-1" points="118.97 101.81 119.03 143.57 121.29 143.57 121.29 101.81 118.97 101.81"/><polygon class="cls-1" points="98.49 101.81 84.22 130.01 69.85 101.81 67.11 101.81 84 134.87 84.22 134.87 101.05 101.81 98.49 101.81"/><polygon class="cls-1" points="201.62 101.81 208.76 117.24 162.87 117.24 169.87 101.81 167.3 101.81 148.18 143.57 150.89 143.57 161.86 119.5 209.78 119.5 220.85 143.57 223.45 143.57 204.09 101.81 201.62 101.81"/><path class="cls-1" d="M305.07,101.81H302.5c-4.05,8-12.79,12.38-25.37,12.38H252.6V101.81h-2.26v41.76h2.26V116.45h24.53c2.6,0,5-.23,7.23-.45l20.12,27.57h2.82l-20.45-28C295.74,113.63,302,108.89,305.07,101.81Z"/><rect class="cls-1" x="357.36" y="101.81" width="2.26" height="41.76"/><rect class="cls-1" x="413.98" y="101.81" width="2.26" height="41.76"/><polygon class="cls-1" points="481.73 101.81 479.01 101.81 447.88 140.75 447.88 143.57 509.59 143.57 509.59 141.31 450.14 141.31 481.73 101.81"/><polygon class="cls-1" points="94.14 100.17 113.3 62.53 113.35 100.17 115.67 100.17 115.67 60.39 111.72 60.39 91.58 100.17 94.14 100.17"/><polygon class="cls-1" points="43.56 100.17 43.56 62.53 62.79 100.17 65.53 100.17 45.26 60.39 41.3 60.39 41.3 100.17 43.56 100.17"/><polygon class="cls-1" points="163.1 100.17 179.97 62.99 197.18 100.17 199.65 100.17 181.21 60.39 178.73 60.39 160.51 100.17 163.1 100.17"/><path class="cls-1" d="M247,100.17V62.65h24.53c17.74,0,27.91,8.47,27.91,23.39a23.94,23.94,0,0,1-4.05,14.13h2.76A27.15,27.15,0,0,0,301.68,86c0-16.27-11-25.65-30.17-25.65H244.72v39.78Z"/><polygon class="cls-1" points="324.62 60.39 324.62 62.65 351.74 62.65 351.74 100.17 354 100.17 354 62.65 381.13 62.65 381.13 60.39 324.62 60.39"/><rect class="cls-1" x="408.36" y="60.39" width="2.26" height="39.78"/><polygon class="cls-1" points="471.36 100.17 474.08 100.17 503.63 63.21 503.63 60.39 443.84 60.39 443.84 62.65 501.37 62.65 471.36 100.17"/></svg>