<svg id="Capa_1" data-name="Capa 1" xmlns="http://www.w3.org/2000/svg" viewBox="0 0 551.24 207.25"><defs><style>.cls-1{fill:#211915;}</style></defs><title>MARTIZ_AF</title><rect class="cls-1" x="54.58" y="103.46" width="2.26" height="41.76"/><polygon class="cls-1" points="126.62 103.46 126.68 145.22 128.94 145.22 128.94 103.46 126.62 103.46"/><polygon class="cls-1" points="106.14 103.46 91.87 131.66 77.5 103.46 74.76 103.46 91.65 136.52 91.87 136.52 108.7 103.46 106.14 103.46"/><polygon class="cls-1" points="209.27 103.46 216.41 118.89 170.53 118.89 177.52 103.46 174.95 103.46 155.83 145.22 158.54 145.22 169.51 121.14 217.43 121.14 228.5 145.22 231.1 145.22 211.74 103.46 209.27 103.46"/><path class="cls-1" d="M312.72,103.46h-2.57c-4,8-12.79,12.37-25.37,12.37H260.25V103.46H258v41.76h2.26V118.09h24.53a69.75,69.75,0,0,0,7.23-.45l20.12,27.58H315l-20.45-28C303.4,115.27,309.63,110.54,312.72,103.46Z"/><rect class="cls-1" x="365.01" y="103.46" width="2.26" height="41.76"/><rect class="cls-1" x="421.63" y="103.46" width="2.26" height="41.76"/><polygon class="cls-1" points="489.38 103.46 486.67 103.46 455.53 142.39 455.53 145.22 517.24 145.22 517.24 142.96 457.79 142.96 489.38 103.46"/><polygon class="cls-1" points="101.79 101.81 120.95 64.18 121.01 101.81 123.32 101.81 123.32 62.03 119.37 62.03 99.24 101.81 101.79 101.81"/><polygon class="cls-1" points="51.22 101.81 51.22 64.18 70.44 101.81 73.18 101.81 52.91 62.03 48.96 62.03 48.96 101.81 51.22 101.81"/><polygon class="cls-1" points="170.75 101.81 187.62 64.63 204.83 101.81 207.3 101.81 188.86 62.03 186.38 62.03 168.17 101.81 170.75 101.81"/><path class="cls-1" d="M254.64,101.81V64.29h24.52c17.74,0,27.91,8.48,27.91,23.4A23.93,23.93,0,0,1,303,101.81h2.76a27.12,27.12,0,0,0,3.56-14.12c0-16.28-11-25.66-30.18-25.66H252.37v39.78Z"/><polygon class="cls-1" points="332.27 62.03 332.27 64.29 359.39 64.29 359.39 101.81 361.65 101.81 361.65 64.29 388.78 64.29 388.78 62.03 332.27 62.03"/><rect class="cls-1" x="416.01" y="62.03" width="2.26" height="39.78"/><polygon class="cls-1" points="479.01 101.81 481.73 101.81 511.28 64.86 511.28 62.03 451.49 62.03 451.49 64.29 509.02 64.29 479.01 101.81"/></svg>